# Simple wooden bench
# Generated procedurally - box-projected UVs (real-world scale)
o Bench
v -0.700000 0.000000 -0.275000
v -0.700000 0.450000 -0.275000
v -0.620000 0.450000 -0.275000
v -0.620000 0.000000 -0.275000
v -0.700000 0.000000 -0.195000
v -0.620000 0.000000 -0.195000
v -0.620000 0.450000 -0.195000
v -0.700000 0.450000 -0.195000
v -0.700000 0.000000 -0.275000
v -0.700000 0.000000 -0.195000
v -0.700000 0.450000 -0.195000
v -0.700000 0.450000 -0.275000
v -0.620000 0.000000 -0.275000
v -0.620000 0.450000 -0.275000
v -0.620000 0.450000 -0.195000
v -0.620000 0.000000 -0.195000
v -0.700000 0.000000 -0.275000
v -0.620000 0.000000 -0.275000
v -0.620000 0.000000 -0.195000
v -0.700000 0.000000 -0.195000
v -0.700000 0.450000 -0.275000
v -0.700000 0.450000 -0.195000
v -0.620000 0.450000 -0.195000
v -0.620000 0.450000 -0.275000
v -0.700000 0.000000 0.195000
v -0.700000 0.950000 0.195000
v -0.620000 0.950000 0.195000
v -0.620000 0.000000 0.195000
v -0.700000 0.000000 0.275000
v -0.620000 0.000000 0.275000
v -0.620000 0.950000 0.275000
v -0.700000 0.950000 0.275000
v -0.700000 0.000000 0.195000
v -0.700000 0.000000 0.275000
v -0.700000 0.950000 0.275000
v -0.700000 0.950000 0.195000
v -0.620000 0.000000 0.195000
v -0.620000 0.950000 0.195000
v -0.620000 0.950000 0.275000
v -0.620000 0.000000 0.275000
v -0.700000 0.000000 0.195000
v -0.620000 0.000000 0.195000
v -0.620000 0.000000 0.275000
v -0.700000 0.000000 0.275000
v -0.700000 0.950000 0.195000
v -0.700000 0.950000 0.275000
v -0.620000 0.950000 0.275000
v -0.620000 0.950000 0.195000
v 0.620000 0.000000 -0.275000
v 0.620000 0.450000 -0.275000
v 0.700000 0.450000 -0.275000
v 0.700000 0.000000 -0.275000
v 0.620000 0.000000 -0.195000
v 0.700000 0.000000 -0.195000
v 0.700000 0.450000 -0.195000
v 0.620000 0.450000 -0.195000
v 0.620000 0.000000 -0.275000
v 0.620000 0.000000 -0.195000
v 0.620000 0.450000 -0.195000
v 0.620000 0.450000 -0.275000
v 0.700000 0.000000 -0.275000
v 0.700000 0.450000 -0.275000
v 0.700000 0.450000 -0.195000
v 0.700000 0.000000 -0.195000
v 0.620000 0.000000 -0.275000
v 0.700000 0.000000 -0.275000
v 0.700000 0.000000 -0.195000
v 0.620000 0.000000 -0.195000
v 0.620000 0.450000 -0.275000
v 0.620000 0.450000 -0.195000
v 0.700000 0.450000 -0.195000
v 0.700000 0.450000 -0.275000
v 0.620000 0.000000 0.195000
v 0.620000 0.950000 0.195000
v 0.700000 0.950000 0.195000
v 0.700000 0.000000 0.195000
v 0.620000 0.000000 0.275000
v 0.700000 0.000000 0.275000
v 0.700000 0.950000 0.275000
v 0.620000 0.950000 0.275000
v 0.620000 0.000000 0.195000
v 0.620000 0.000000 0.275000
v 0.620000 0.950000 0.275000
v 0.620000 0.950000 0.195000
v 0.700000 0.000000 0.195000
v 0.700000 0.950000 0.195000
v 0.700000 0.950000 0.275000
v 0.700000 0.000000 0.275000
v 0.620000 0.000000 0.195000
v 0.700000 0.000000 0.195000
v 0.700000 0.000000 0.275000
v 0.620000 0.000000 0.275000
v 0.620000 0.950000 0.195000
v 0.620000 0.950000 0.275000
v 0.700000 0.950000 0.275000
v 0.700000 0.950000 0.195000
v -0.750000 0.450000 -0.275000
v -0.750000 0.480000 -0.275000
v 0.750000 0.480000 -0.275000
v 0.750000 0.450000 -0.275000
v -0.750000 0.450000 -0.015000
v 0.750000 0.450000 -0.015000
v 0.750000 0.480000 -0.015000
v -0.750000 0.480000 -0.015000
v -0.750000 0.450000 -0.275000
v -0.750000 0.450000 -0.015000
v -0.750000 0.480000 -0.015000
v -0.750000 0.480000 -0.275000
v 0.750000 0.450000 -0.275000
v 0.750000 0.480000 -0.275000
v 0.750000 0.480000 -0.015000
v 0.750000 0.450000 -0.015000
v -0.750000 0.450000 -0.275000
v 0.750000 0.450000 -0.275000
v 0.750000 0.450000 -0.015000
v -0.750000 0.450000 -0.015000
v -0.750000 0.480000 -0.275000
v -0.750000 0.480000 -0.015000
v 0.750000 0.480000 -0.015000
v 0.750000 0.480000 -0.275000
v -0.750000 0.450000 0.015000
v -0.750000 0.480000 0.015000
v 0.750000 0.480000 0.015000
v 0.750000 0.450000 0.015000
v -0.750000 0.450000 0.275000
v 0.750000 0.450000 0.275000
v 0.750000 0.480000 0.275000
v -0.750000 0.480000 0.275000
v -0.750000 0.450000 0.015000
v -0.750000 0.450000 0.275000
v -0.750000 0.480000 0.275000
v -0.750000 0.480000 0.015000
v 0.750000 0.450000 0.015000
v 0.750000 0.480000 0.015000
v 0.750000 0.480000 0.275000
v 0.750000 0.450000 0.275000
v -0.750000 0.450000 0.015000
v 0.750000 0.450000 0.015000
v 0.750000 0.450000 0.275000
v -0.750000 0.450000 0.275000
v -0.750000 0.480000 0.015000
v -0.750000 0.480000 0.275000
v 0.750000 0.480000 0.275000
v 0.750000 0.480000 0.015000
v -0.750000 0.550000 0.165000
v -0.750000 0.690000 0.165000
v 0.750000 0.690000 0.165000
v 0.750000 0.550000 0.165000
v -0.750000 0.550000 0.195000
v 0.750000 0.550000 0.195000
v 0.750000 0.690000 0.195000
v -0.750000 0.690000 0.195000
v -0.750000 0.550000 0.165000
v -0.750000 0.550000 0.195000
v -0.750000 0.690000 0.195000
v -0.750000 0.690000 0.165000
v 0.750000 0.550000 0.165000
v 0.750000 0.690000 0.165000
v 0.750000 0.690000 0.195000
v 0.750000 0.550000 0.195000
v -0.750000 0.550000 0.165000
v 0.750000 0.550000 0.165000
v 0.750000 0.550000 0.195000
v -0.750000 0.550000 0.195000
v -0.750000 0.690000 0.165000
v -0.750000 0.690000 0.195000
v 0.750000 0.690000 0.195000
v 0.750000 0.690000 0.165000
v -0.750000 0.800000 0.165000
v -0.750000 0.940000 0.165000
v 0.750000 0.940000 0.165000
v 0.750000 0.800000 0.165000
v -0.750000 0.800000 0.195000
v 0.750000 0.800000 0.195000
v 0.750000 0.940000 0.195000
v -0.750000 0.940000 0.195000
v -0.750000 0.800000 0.165000
v -0.750000 0.800000 0.195000
v -0.750000 0.940000 0.195000
v -0.750000 0.940000 0.165000
v 0.750000 0.800000 0.165000
v 0.750000 0.940000 0.165000
v 0.750000 0.940000 0.195000
v 0.750000 0.800000 0.195000
v -0.750000 0.800000 0.165000
v 0.750000 0.800000 0.165000
v 0.750000 0.800000 0.195000
v -0.750000 0.800000 0.195000
v -0.750000 0.940000 0.165000
v -0.750000 0.940000 0.195000
v 0.750000 0.940000 0.195000
v 0.750000 0.940000 0.165000
vt 0.00000 0.00000
vt 0.00000 0.45000
vt 0.08000 0.45000
vt 0.08000 0.00000
vt 0.00000 0.00000
vt 0.08000 0.00000
vt 0.08000 0.45000
vt 0.00000 0.45000
vt 0.00000 0.00000
vt 0.08000 0.00000
vt 0.08000 0.45000
vt 0.00000 0.45000
vt 0.00000 0.00000
vt 0.00000 0.45000
vt 0.08000 0.45000
vt 0.08000 0.00000
vt 0.00000 0.00000
vt 0.08000 0.00000
vt 0.08000 0.08000
vt 0.00000 0.08000
vt 0.00000 0.00000
vt 0.00000 0.08000
vt 0.08000 0.08000
vt 0.08000 0.00000
vt 0.00000 0.00000
vt 0.00000 0.95000
vt 0.08000 0.95000
vt 0.08000 0.00000
vt 0.00000 0.00000
vt 0.08000 0.00000
vt 0.08000 0.95000
vt 0.00000 0.95000
vt 0.00000 0.00000
vt 0.08000 0.00000
vt 0.08000 0.95000
vt 0.00000 0.95000
vt 0.00000 0.00000
vt 0.00000 0.95000
vt 0.08000 0.95000
vt 0.08000 0.00000
vt 0.00000 0.00000
vt 0.08000 0.00000
vt 0.08000 0.08000
vt 0.00000 0.08000
vt 0.00000 0.00000
vt 0.00000 0.08000
vt 0.08000 0.08000
vt 0.08000 0.00000
vt 0.00000 0.00000
vt 0.00000 0.45000
vt 0.08000 0.45000
vt 0.08000 0.00000
vt 0.00000 0.00000
vt 0.08000 0.00000
vt 0.08000 0.45000
vt 0.00000 0.45000
vt 0.00000 0.00000
vt 0.08000 0.00000
vt 0.08000 0.45000
vt 0.00000 0.45000
vt 0.00000 0.00000
vt 0.00000 0.45000
vt 0.08000 0.45000
vt 0.08000 0.00000
vt 0.00000 0.00000
vt 0.08000 0.00000
vt 0.08000 0.08000
vt 0.00000 0.08000
vt 0.00000 0.00000
vt 0.00000 0.08000
vt 0.08000 0.08000
vt 0.08000 0.00000
vt 0.00000 0.00000
vt 0.00000 0.95000
vt 0.08000 0.95000
vt 0.08000 0.00000
vt 0.00000 0.00000
vt 0.08000 0.00000
vt 0.08000 0.95000
vt 0.00000 0.95000
vt 0.00000 0.00000
vt 0.08000 0.00000
vt 0.08000 0.95000
vt 0.00000 0.95000
vt 0.00000 0.00000
vt 0.00000 0.95000
vt 0.08000 0.95000
vt 0.08000 0.00000
vt 0.00000 0.00000
vt 0.08000 0.00000
vt 0.08000 0.08000
vt 0.00000 0.08000
vt 0.00000 0.00000
vt 0.00000 0.08000
vt 0.08000 0.08000
vt 0.08000 0.00000
vt 0.00000 0.00000
vt 0.00000 0.03000
vt 1.50000 0.03000
vt 1.50000 0.00000
vt 0.00000 0.00000
vt 1.50000 0.00000
vt 1.50000 0.03000
vt 0.00000 0.03000
vt 0.00000 0.00000
vt 0.26000 0.00000
vt 0.26000 0.03000
vt 0.00000 0.03000
vt 0.00000 0.00000
vt 0.00000 0.03000
vt 0.26000 0.03000
vt 0.26000 0.00000
vt 0.00000 0.00000
vt 1.50000 0.00000
vt 1.50000 0.26000
vt 0.00000 0.26000
vt 0.00000 0.00000
vt 0.00000 0.26000
vt 1.50000 0.26000
vt 1.50000 0.00000
vt 0.00000 0.00000
vt 0.00000 0.03000
vt 1.50000 0.03000
vt 1.50000 0.00000
vt 0.00000 0.00000
vt 1.50000 0.00000
vt 1.50000 0.03000
vt 0.00000 0.03000
vt 0.00000 0.00000
vt 0.26000 0.00000
vt 0.26000 0.03000
vt 0.00000 0.03000
vt 0.00000 0.00000
vt 0.00000 0.03000
vt 0.26000 0.03000
vt 0.26000 0.00000
vt 0.00000 0.00000
vt 1.50000 0.00000
vt 1.50000 0.26000
vt 0.00000 0.26000
vt 0.00000 0.00000
vt 0.00000 0.26000
vt 1.50000 0.26000
vt 1.50000 0.00000
vt 0.00000 0.00000
vt 0.00000 0.14000
vt 1.50000 0.14000
vt 1.50000 0.00000
vt 0.00000 0.00000
vt 1.50000 0.00000
vt 1.50000 0.14000
vt 0.00000 0.14000
vt 0.00000 0.00000
vt 0.03000 0.00000
vt 0.03000 0.14000
vt 0.00000 0.14000
vt 0.00000 0.00000
vt 0.00000 0.14000
vt 0.03000 0.14000
vt 0.03000 0.00000
vt 0.00000 0.00000
vt 1.50000 0.00000
vt 1.50000 0.03000
vt 0.00000 0.03000
vt 0.00000 0.00000
vt 0.00000 0.03000
vt 1.50000 0.03000
vt 1.50000 0.00000
vt 0.00000 0.00000
vt 0.00000 0.14000
vt 1.50000 0.14000
vt 1.50000 0.00000
vt 0.00000 0.00000
vt 1.50000 0.00000
vt 1.50000 0.14000
vt 0.00000 0.14000
vt 0.00000 0.00000
vt 0.03000 0.00000
vt 0.03000 0.14000
vt 0.00000 0.14000
vt 0.00000 0.00000
vt 0.00000 0.14000
vt 0.03000 0.14000
vt 0.03000 0.00000
vt 0.00000 0.00000
vt 1.50000 0.00000
vt 1.50000 0.03000
vt 0.00000 0.03000
vt 0.00000 0.00000
vt 0.00000 0.03000
vt 1.50000 0.03000
vt 1.50000 0.00000
vn 0.0 0.0 -1.0
vn 0.0 0.0 1.0
vn -1.0 0.0 0.0
vn 1.0 0.0 0.0
vn 0.0 -1.0 0.0
vn 0.0 1.0 0.0
g Leg_FrontLeft
f 1/1/1 2/2/1 3/3/1 4/4/1
f 5/5/2 6/6/2 7/7/2 8/8/2
f 9/9/3 10/10/3 11/11/3 12/12/3
f 13/13/4 14/14/4 15/15/4 16/16/4
f 17/17/5 18/18/5 19/19/5 20/20/5
f 21/21/6 22/22/6 23/23/6 24/24/6
g Leg_BackLeft
f 25/25/1 26/26/1 27/27/1 28/28/1
f 29/29/2 30/30/2 31/31/2 32/32/2
f 33/33/3 34/34/3 35/35/3 36/36/3
f 37/37/4 38/38/4 39/39/4 40/40/4
f 41/41/5 42/42/5 43/43/5 44/44/5
f 45/45/6 46/46/6 47/47/6 48/48/6
g Leg_FrontRight
f 49/49/1 50/50/1 51/51/1 52/52/1
f 53/53/2 54/54/2 55/55/2 56/56/2
f 57/57/3 58/58/3 59/59/3 60/60/3
f 61/61/4 62/62/4 63/63/4 64/64/4
f 65/65/5 66/66/5 67/67/5 68/68/5
f 69/69/6 70/70/6 71/71/6 72/72/6
g Leg_BackRight
f 73/73/1 74/74/1 75/75/1 76/76/1
f 77/77/2 78/78/2 79/79/2 80/80/2
f 81/81/3 82/82/3 83/83/3 84/84/3
f 85/85/4 86/86/4 87/87/4 88/88/4
f 89/89/5 90/90/5 91/91/5 92/92/5
f 93/93/6 94/94/6 95/95/6 96/96/6
g SeatSlat
f 97/97/1 98/98/1 99/99/1 100/100/1
f 101/101/2 102/102/2 103/103/2 104/104/2
f 105/105/3 106/106/3 107/107/3 108/108/3
f 109/109/4 110/110/4 111/111/4 112/112/4
f 113/113/5 114/114/5 115/115/5 116/116/5
f 117/117/6 118/118/6 119/119/6 120/120/6
f 121/121/1 122/122/1 123/123/1 124/124/1
f 125/125/2 126/126/2 127/127/2 128/128/2
f 129/129/3 130/130/3 131/131/3 132/132/3
f 133/133/4 134/134/4 135/135/4 136/136/4
f 137/137/5 138/138/5 139/139/5 140/140/5
f 141/141/6 142/142/6 143/143/6 144/144/6
g BackrestSlat_Lower
f 145/145/1 146/146/1 147/147/1 148/148/1
f 149/149/2 150/150/2 151/151/2 152/152/2
f 153/153/3 154/154/3 155/155/3 156/156/3
f 157/157/4 158/158/4 159/159/4 160/160/4
f 161/161/5 162/162/5 163/163/5 164/164/5
f 165/165/6 166/166/6 167/167/6 168/168/6
g BackrestSlat_Upper
f 169/169/1 170/170/1 171/171/1 172/172/1
f 173/173/2 174/174/2 175/175/2 176/176/2
f 177/177/3 178/178/3 179/179/3 180/180/3
f 181/181/4 182/182/4 183/183/4 184/184/4
f 185/185/5 186/186/5 187/187/5 188/188/5
f 189/189/6 190/190/6 191/191/6 192/192/6
